<svg width="742" height="752" viewBox="0 0 742 752" fill="none" xmlns="http://www.w3.org/2000/svg">
<g clip-path="url(#clip0_3_1805)">
<path d="M380.602 594.847C520.789 594.847 634.432 481.203 634.432 341.017C634.432 200.83 520.789 87.1869 380.602 87.1869C240.416 87.1869 126.772 200.83 126.772 341.017C126.772 481.203 240.416 594.847 380.602 594.847Z" fill="#F9F9FC"/>
<path d="M138.323 346.792C138.323 209.793 249.378 98.7226 386.393 98.7226C522.429 98.7226 632.868 208.229 634.417 343.905C634.432 342.942 634.447 341.98 634.447 341.017C634.447 200.829 520.805 87.1869 380.617 87.1869C240.429 87.1869 126.772 200.829 126.772 341.017C126.772 481.205 240.414 594.847 380.602 594.847C381.565 594.847 382.527 594.817 383.49 594.817C247.829 593.268 138.323 482.829 138.323 346.792Z" fill="#AAA5BA"/>
<path d="M241.885 578.838L207.056 554.141L164.848 613.666L199.677 638.363L241.885 578.838Z" fill="#AAA5BA"/>
<path d="M199.852 564.316C209.146 575.43 219.283 585.823 230.142 595.404L241.873 578.86L207.041 554.164L199.852 564.316Z" fill="#001552"/>
<path d="M221.193 653.638L143.301 598.412L27.6285 761.55L105.521 816.777L221.193 653.638Z" fill="#3919A4"/>
<path d="M195.054 635.116L79.3816 798.246L105.488 816.757L221.161 653.628L195.054 635.116Z" fill="#001552"/>
<path d="M380.602 56.9114C223.69 56.9114 96.4966 184.105 96.4966 341.017C96.4966 497.929 223.69 625.123 380.602 625.123C537.515 625.123 664.708 497.929 664.708 341.017C664.723 184.105 537.515 56.9114 380.602 56.9114ZM380.602 594.862C240.414 594.862 126.772 481.22 126.772 341.032C126.772 200.844 240.414 87.1869 380.602 87.1869C520.79 87.1869 634.432 200.829 634.432 341.017C634.432 481.205 520.805 594.862 380.602 594.862Z" fill="#C0C0DE"/>
<path d="M129.524 643.847C129.058 643.847 128.592 643.712 128.186 643.411C127.178 642.674 126.968 641.261 127.705 640.253L144.354 617.588C145.091 616.58 146.505 616.369 147.512 617.106C148.52 617.843 148.731 619.257 147.994 620.265L131.344 642.93C130.908 643.532 130.216 643.847 129.524 643.847Z" fill="white"/>
<path d="M44.0973 760.122C43.631 760.122 43.1648 759.986 42.7587 759.685C41.751 758.948 41.5405 757.535 42.2774 756.527L112.77 660.572C113.507 659.564 114.921 659.354 115.928 660.091C116.936 660.828 117.147 662.241 116.41 663.249L45.9171 759.204C45.481 759.806 44.7891 760.122 44.0973 760.122Z" fill="white"/>
<path d="M486.86 63.0326C486.589 63.0326 486.318 62.9875 486.063 62.8822C452.403 50.1132 416.939 43.646 380.617 43.646C355.636 43.646 330.805 46.7443 306.831 52.8656C305.628 53.1664 304.395 52.4444 304.094 51.2412C303.793 50.038 304.515 48.8048 305.718 48.504C330.053 42.2924 355.26 39.134 380.617 39.134C417.48 39.134 453.501 45.7065 487.672 58.671C488.83 59.1071 489.417 60.4156 488.98 61.5737C488.635 62.4761 487.777 63.0326 486.86 63.0326Z" fill="#FE0000"/>
<path d="M590.952 556.66C590.365 556.66 589.794 556.435 589.342 555.984C588.47 555.096 588.485 553.667 589.372 552.795C602.638 539.725 614.715 525.347 625.303 510.052C626.01 509.029 627.424 508.773 628.446 509.48C629.469 510.187 629.725 511.601 629.018 512.623C618.279 528.145 606.007 542.733 592.546 556.014C592.095 556.45 591.523 556.66 590.952 556.66Z" fill="#E2353F"/>
<path d="M380.602 642.915C371.398 642.915 362.103 642.494 352.989 641.667C351.74 641.546 350.838 640.463 350.943 639.215C351.049 637.982 352.162 637.064 353.395 637.17C362.389 637.982 371.533 638.403 380.602 638.403C444.357 638.403 505.148 618.52 556.375 580.92C557.382 580.183 558.796 580.394 559.533 581.401C560.27 582.409 560.059 583.823 559.052 584.56C507.043 622.731 445.334 642.915 380.602 642.915Z" fill="#FE0000"/>
<path d="M90.7062 476.663C89.849 476.663 89.0368 476.181 88.6608 475.354C69.184 433.107 59.3178 387.912 59.3178 341.017C59.3178 323.766 60.7014 306.455 63.4086 289.565C63.6042 288.332 64.7622 287.49 65.9955 287.7C67.2288 287.896 68.056 289.054 67.8605 290.287C65.1834 306.951 63.8147 324.022 63.8147 341.017C63.8147 387.25 73.5456 431.813 92.7366 473.459C93.263 474.587 92.7667 475.926 91.6387 476.452C91.3379 476.588 91.0221 476.663 90.7062 476.663Z" fill="#FE0000"/>
<path d="M469.489 649.773C468.511 649.773 467.609 649.126 467.323 648.149C466.977 646.946 467.669 645.697 468.857 645.351C488.875 639.561 508.412 631.725 526.926 622.069C528.024 621.498 529.393 621.919 529.964 623.032C530.536 624.13 530.115 625.498 529.002 626.07C510.217 635.861 490.409 643.817 470.105 649.698C469.91 649.743 469.699 649.773 469.489 649.773Z" fill="#FE0000"/>
<path d="M548.283 190.812L658.902 91.8342L692.667 146.565L548.283 190.812Z" fill="#FFCD4C"/>
<path d="M437.724 183.744L460.374 102.513L494.966 124.546L437.724 183.744Z" fill="#FE0000"/>
<path d="M579.551 591.613L615.271 678.62L662.948 630.778L579.551 591.613Z" fill="#E2353F"/>
<path d="M174.118 480.378L54.896 514.804L78.2531 559.729L174.118 480.378Z" fill="#FFCD4C"/>
<path d="M133.766 257.184L56.9114 237.782L78.6442 199.746L133.766 257.184Z" fill="#FE0000"/>
<path d="M323.556 711.302C331.488 711.302 337.919 704.871 337.919 696.939C337.919 689.006 331.488 682.575 323.556 682.575C315.623 682.575 309.192 689.006 309.192 696.939C309.192 704.871 315.623 711.302 323.556 711.302Z" stroke="#3919A4" stroke-width="2" stroke-miterlimit="10"/>
<path d="M698.438 532.823C700.615 523.65 694.944 514.449 685.77 512.272C676.597 510.095 667.396 515.767 665.219 524.94C663.042 534.113 668.714 543.314 677.887 545.491C687.06 547.668 696.261 541.996 698.438 532.823Z" stroke="#3919A4" stroke-width="2" stroke-miterlimit="10"/>
<path d="M49.1507 442.717C53.8687 442.717 57.6934 438.893 57.6934 434.175C57.6934 429.457 53.8687 425.632 49.1507 425.632C44.4327 425.632 40.608 429.457 40.608 434.175C40.608 438.893 44.4327 442.717 49.1507 442.717Z" fill="#3919A4"/>
<path d="M90.2863 104.257C96.5004 98.0425 96.5004 87.9675 90.2863 81.7534C84.0722 75.5393 73.9972 75.5393 67.7831 81.7534C61.569 87.9675 61.569 98.0425 67.7831 104.257C73.9972 110.471 84.0722 110.471 90.2863 104.257Z" stroke="#3919A4" stroke-width="2" stroke-miterlimit="10"/>
<path d="M417.871 684.907C417.871 688.772 414.743 691.9 410.878 691.9C407.012 691.9 403.884 688.772 403.884 684.907C403.884 681.041 407.012 677.913 410.878 677.913C414.743 677.913 417.871 681.041 417.871 684.907Z" fill="#3919A4"/>
<path d="M571.565 47.6015C571.565 51.0307 568.783 53.8131 565.354 53.8131C561.924 53.8131 559.142 51.0307 559.142 47.6015C559.142 44.1724 561.924 41.39 565.354 41.39C568.783 41.39 571.565 44.1574 571.565 47.6015Z" fill="#3919A4"/>
<path d="M462.706 619.888L346.266 633.861L324.142 580.303L305.508 623.378L297.115 620.024L295.01 619.182L200.709 581.461L210.034 537.8C210.034 537.8 420.203 500.546 425.436 508.698C430.67 516.849 462.706 619.888 462.706 619.888Z" fill="#3919A4"/>
<path d="M435.784 536.251C430.986 522.098 427.016 511.134 425.436 508.683C420.203 500.531 210.019 537.785 210.019 537.785C210.019 537.785 371.142 546.072 435.784 536.251Z" fill="#001552"/>
<path d="M314.727 570.196L297.115 620.024L295.01 619.182L312.591 569.444C312.802 568.858 313.449 568.557 314.035 568.753C314.622 568.963 314.923 569.61 314.727 570.196Z" fill="#001552"/>
<path d="M292.889 601.028C292.814 601.028 292.724 601.013 292.648 600.998C292.047 600.863 291.656 600.261 291.791 599.66L296.829 576.754C296.965 576.152 297.551 575.761 298.168 575.897C298.77 576.032 299.161 576.634 299.025 577.235L293.972 600.141C293.882 600.667 293.415 601.028 292.889 601.028Z" fill="#001552"/>
<path d="M327.045 210.034C327.045 210.034 359.065 222.848 374.195 232.744C389.325 242.64 414.367 275.834 414.367 275.834L364.299 291.55L327.045 210.034Z" fill="#FE0000"/>
<path d="M219.93 235.06C219.93 235.06 178.6 258.929 171.606 267.08C164.613 275.232 196.061 397.492 201.295 417.285C206.529 437.077 210.034 537.8 210.034 537.8C210.034 537.8 375.955 531.98 435.919 512.187C435.919 512.187 417.285 464.45 412.051 438.837C406.817 413.224 372.466 289.791 367.803 276.992C363.141 264.178 338.114 213.538 327.045 210.034C315.99 206.544 265.336 215.267 256.011 219.93C246.701 224.577 219.93 235.06 219.93 235.06Z" fill="#FE0000"/>
<path d="M337.528 353.831C337.528 353.831 236.7 376.241 193.655 387.37C197.144 401.372 200.017 412.427 201.295 417.285C202.529 421.947 203.672 431.121 204.679 442.401C247.859 428.113 360.81 375.368 360.81 375.368L337.528 353.831Z" fill="#3D0B34"/>
<path d="M219.93 235.06C219.93 235.06 214.696 238.083 207.657 242.324C210.064 249.664 221.524 276.465 259.124 270.765C299.732 264.599 298.348 222.547 294.814 211.342C278.33 213.658 261.079 217.388 256.011 219.93C246.701 224.577 219.93 235.06 219.93 235.06Z" fill="#EAADA9"/>
<path d="M256.297 284.888C247.604 284.888 240.971 283.459 240.339 283.323C239.738 283.188 239.347 282.586 239.482 281.97C239.617 281.368 240.219 280.977 240.836 281.113C241.181 281.188 275.563 288.572 291.235 268.99C294.754 264.599 297.702 260.072 300.018 255.575C300.304 255.018 300.98 254.793 301.537 255.078C302.093 255.364 302.304 256.041 302.033 256.597C299.657 261.245 296.619 265.877 293.009 270.404C283.489 282.286 268.028 284.888 256.297 284.888Z" fill="white"/>
<path d="M305.101 247.242C304.996 247.242 304.876 247.227 304.771 247.197C304.169 247.017 303.838 246.385 304.019 245.784C306.214 238.564 305.838 234.052 305.838 234.007C305.778 233.391 306.244 232.834 306.861 232.774C307.478 232.729 308.034 233.165 308.094 233.797C308.109 233.992 308.531 238.76 306.184 246.445C306.034 246.927 305.583 247.242 305.101 247.242Z" fill="white"/>
<path d="M369.548 280.436C369.082 280.436 368.645 280.135 368.48 279.669C362.193 261.365 340.852 226.096 340.641 225.75C340.325 225.224 340.491 224.517 341.017 224.201C341.543 223.87 342.235 224.051 342.566 224.577C342.777 224.938 364.239 260.402 370.616 278.947C370.811 279.533 370.51 280.18 369.909 280.376C369.788 280.421 369.668 280.436 369.548 280.436Z" fill="#3D0B34"/>
<path d="M167.741 111.07C167.741 111.07 163.38 111.266 161.319 117.192C159.259 123.117 158.176 137.45 160.251 144.64C162.327 151.829 175.336 174.84 175.336 174.84L174.223 138.172L167.741 111.07Z" fill="#591808"/>
<path d="M173.607 151.844C173.607 151.844 164.553 146.038 161.53 154.882C158.492 163.71 165.244 181.788 178.51 184.932C178.51 184.932 181.322 167.275 173.607 151.844Z" fill="#FE656D"/>
<path d="M269.682 146.234C269.682 146.234 276.691 137.781 281.594 143.918C286.482 150.039 284.692 171.802 268.629 177.457L269.682 146.234Z" fill="#FE656D"/>
<path d="M254.582 198.678C254.582 198.678 263.396 215.057 276.42 223.87C276.42 223.87 252.055 252.852 224.337 253.695C224.337 253.695 215.523 232.699 213.839 222.201C213.839 222.186 248.701 207.492 254.582 198.678Z" fill="#EAADA9"/>
<path d="M252.476 224.291C256.372 219.328 259.019 213.027 260.703 208.078C256.823 202.829 254.582 198.678 254.582 198.678C248.701 207.492 213.839 222.201 213.839 222.201C214.516 226.472 216.396 232.488 218.366 238.113C229.33 235.692 247.333 230.879 252.476 224.291Z" fill="#FE656D"/>
<path d="M270.404 120.2C271.938 138.924 272.66 164.116 271.472 171.561C269.607 183.202 257.771 210.274 244.956 220.667C234.729 228.984 228.984 230.262 227.239 230.398C225.525 230.533 197.49 225.765 187.534 208.409C182.029 198.754 179.111 192.783 177.953 186.601C177.953 186.601 172.614 146.099 171.486 140.955C170.403 135.811 163.5 109.521 182.059 97.5945C200.664 85.6979 237.151 88.4502 246.024 90.5257C254.913 92.6463 263.997 93.3081 267.246 98.9932C267.336 99.1737 267.411 99.3391 267.501 99.5798C268.554 102.407 269.607 110.394 270.404 120.2Z" fill="#EAADA9"/>
<path d="M264.599 117.477C264.599 117.477 265.516 124.817 266.509 129.434C267.501 134.051 268.208 145.286 268.389 149.167C268.569 153.047 268.87 167.982 270.645 168.689C272.42 169.38 274.645 145.768 274.66 141.887C274.676 138.007 277.834 113.762 277.834 113.762L264.599 117.477Z" fill="#360700"/>
<path d="M235.03 194.121C235.03 194.121 234.744 195.114 234.098 196.528C232.518 199.791 228.834 205.221 221.479 205.146C214.44 205.04 211.162 200.799 209.793 198.017C209.116 196.663 208.891 195.67 208.891 195.67C208.891 195.67 222.562 197.866 235.03 194.121Z" fill="#E2353F"/>
<path d="M241.287 157.469C241.557 160.868 240.505 163.71 238.956 163.831C237.406 163.951 235.932 161.304 235.662 157.905C235.391 154.506 236.444 151.663 237.993 151.543C239.542 151.408 241.016 154.07 241.287 157.469Z" fill="#591808"/>
<path d="M208.891 195.685C208.891 195.685 209.116 196.678 209.793 198.032C209.988 198.438 210.229 198.874 210.515 199.31L212.53 198.393C217.869 199.009 227.179 199.46 234.098 196.528C234.744 195.114 235.03 194.121 235.03 194.121C222.562 197.866 208.891 195.685 208.891 195.685Z" fill="white"/>
<path d="M207.236 160.116C207.507 163.515 206.454 166.357 204.905 166.478C203.356 166.598 201.882 163.951 201.611 160.552C201.34 157.153 202.393 154.31 203.942 154.19C205.507 154.055 206.98 156.717 207.236 160.116Z" fill="#591808"/>
<path d="M217.117 181.051C217.117 181.051 219.885 181.894 222.592 181.758C225.314 181.638 229.45 180.961 229.45 180.961C229.45 180.961 224.683 183.834 222.321 183.698C219.96 183.578 217.117 181.051 217.117 181.051Z" fill="#FE656D"/>
<path d="M247.784 140.94C247.634 140.819 247.438 140.729 247.273 140.624C247.258 140.609 247.243 140.594 247.228 140.579C246.19 139.767 244.716 139.33 243.437 139.09C242.024 138.819 240.565 138.789 239.136 138.939C239.061 138.954 238.986 138.969 238.91 138.985C237.617 139.075 236.354 139.376 235.165 139.857C235.105 139.872 235.045 139.887 234.97 139.917C233.827 140.323 232.172 140.925 231.481 141.977C231.39 142.128 231.526 142.338 231.706 142.323C232.293 142.248 232.804 141.917 233.346 141.707C233.917 141.466 234.489 141.225 235.075 141C236.354 140.519 237.707 140.188 239.061 140.022C239.632 139.962 240.189 139.932 240.76 139.932C241.738 140.022 242.716 140.188 243.648 140.458C244.911 140.819 246.024 141.511 247.258 141.917C247.799 142.068 248.22 141.271 247.784 140.94Z" fill="#591808"/>
<path d="M194.964 143.376C195.114 143.241 195.279 143.136 195.445 143.015C195.46 143 195.46 142.985 195.49 142.955C196.452 142.038 197.866 141.481 199.13 141.12C200.513 140.714 201.957 140.549 203.401 140.579C203.476 140.579 203.551 140.594 203.627 140.594C204.92 140.564 206.213 140.744 207.432 141.12C207.492 141.135 207.567 141.135 207.627 141.165C208.8 141.466 210.5 141.902 211.297 142.895C211.402 143.03 211.282 143.271 211.116 143.256C210.53 143.241 209.988 142.955 209.432 142.79C208.83 142.609 208.244 142.414 207.642 142.248C206.319 141.887 204.95 141.677 203.581 141.647C203.01 141.632 202.438 141.662 201.882 141.707C200.919 141.887 199.972 142.143 199.054 142.504C197.821 142.985 196.783 143.767 195.58 144.279C195.054 144.504 194.557 143.737 194.964 143.376Z" fill="#591808"/>
<path d="M175.111 173.862C175.111 173.862 174.765 183.202 177.111 183.488C179.457 183.774 176.946 146.189 176.946 146.189C176.946 146.189 180.239 150.31 181.307 147.933C182.36 145.557 178.946 130.562 178.946 130.562C178.946 130.562 189.88 123.448 201.055 121.388C212.229 119.312 244.325 120.365 252.913 121.132C261.5 121.899 278.736 116.635 289.7 109.912C298.965 104.227 306.35 81.5167 308.952 71.3497C309.373 69.6802 307.673 68.2514 306.109 68.9884C302.033 70.8985 295.807 73.7861 293.325 74.7788C282.135 79.2908 255.891 80.3887 257.004 79.1705C258.116 77.9522 258.793 75.982 257.62 75.6511C256.432 75.3202 236.384 78.5689 220.065 78.5538C220.065 78.5538 195.054 77.4709 184.24 83.2162C173.426 88.9615 164.342 106.573 167.215 118.395C170.087 130.216 172.073 149.889 171.997 152.566C171.922 155.198 175.111 173.862 175.111 173.862Z" fill="#591808"/>
<path d="M231.812 112.665C222.592 112.665 215.373 112.319 214.726 112.274C214.109 112.243 213.628 111.717 213.658 111.085C213.688 110.469 214.23 110.002 214.846 110.018C215.192 110.033 249.514 111.702 265.456 107.716C266.178 107.536 266.9 107.355 267.592 107.16C268.193 106.994 268.81 107.355 268.975 107.957C269.141 108.559 268.78 109.175 268.178 109.341C267.471 109.536 266.749 109.717 265.997 109.912C257.079 112.138 242.971 112.665 231.812 112.665Z" fill="white"/>
<path d="M277.744 104.964C277.307 104.964 276.901 104.708 276.706 104.287C276.45 103.716 276.706 103.054 277.277 102.798C283.384 100.106 286.437 97.7599 286.467 97.7298C286.963 97.3538 287.67 97.444 288.046 97.9253C288.422 98.4216 288.332 99.1285 287.851 99.5045C287.715 99.6098 284.572 102.031 278.195 104.844C278.06 104.934 277.894 104.964 277.744 104.964Z" fill="white"/>
<path d="M347.474 272.938H703.28C711.012 272.938 717.28 279.206 717.28 286.938V441.689C717.28 449.421 711.012 455.689 703.28 455.689H347.474C339.742 455.689 333.474 449.421 333.474 441.689V286.938C333.474 279.206 339.742 272.938 347.474 272.938Z" fill="white" stroke="#FE0000" stroke-width="2"/>
<path d="M414.924 277.413C414.924 277.413 401.974 274.856 403.027 263.546C403.027 263.546 406.877 261.726 408.276 262.448C409.675 263.185 423.316 266.103 425.767 267.186C428.219 268.283 434.16 277.037 434.16 277.037C434.16 277.037 418.082 279.248 414.924 277.413Z" fill="#EAADA9"/>
<path d="M481.039 263.29C481.039 263.29 486.574 260.372 490.063 261.831C493.553 263.29 494.425 269.111 493.853 272.013C493.267 274.931 487.161 292.393 482.799 290.648C478.437 288.903 477.851 275.803 477.851 275.803L481.039 263.29Z" fill="#EAADA9"/>
<path d="M463.578 262.719C463.578 262.719 471.143 257.184 474.632 257.184C478.122 257.184 481.626 263.877 482.197 265.621C482.784 267.366 479.28 290.663 478.708 292.979C478.122 295.31 474.632 300.258 472.015 300.258C469.398 300.258 463.864 290.362 463.864 287.159C463.864 283.955 463.578 262.719 463.578 262.719Z" fill="#EAADA9"/>
<path d="M444.943 264.839C444.943 264.839 451.35 256.898 455.426 256.612C459.502 256.327 461.833 260.974 463.578 262.719C465.323 264.463 463.292 279.609 462.991 283.97C462.706 288.332 458.63 304.349 454.84 305.507C451.05 306.665 446.402 302.304 446.101 299.1C445.816 295.897 443.77 275.818 443.77 275.818L444.943 264.839Z" fill="#EAADA9"/>
<path d="M428.926 283.639C428.926 283.639 426.008 268.133 426.895 264.824C427.768 261.53 433.588 259.214 437.077 259.214C440.567 259.214 444.943 264.824 444.943 264.824C444.943 264.824 444.658 285.94 443.484 290.904C442.326 295.852 437.077 298.499 435.333 297.837C433.588 297.175 430.099 293.551 428.926 283.639Z" fill="#EAADA9"/>
<g filter="url(#filter0_d_3_1805)">
<rect x="398" y="305.594" width="263" height="138.843" rx="8" fill="white"/>
<rect x="399.5" y="307.094" width="260" height="135.843" rx="6.5" stroke="#FE0000" stroke-width="3"/>
</g>
<path d="M451.456 383.05H455.208V393.186H451.456V383.05ZM451.96 382.154V351.522L454.648 350.906V382.266L451.96 382.154ZM451.456 340.994H455.208V350.234L451.456 350.794V340.994ZM463.832 357.29C463.571 357.029 463.085 356.674 462.376 356.226C461.704 355.778 460.864 355.349 459.856 354.938C458.885 354.528 457.821 354.173 456.664 353.874C455.507 353.538 454.331 353.37 453.136 353.37C451.045 353.37 449.459 353.762 448.376 354.546C447.331 355.33 446.808 356.432 446.808 357.85C446.808 358.933 447.144 359.792 447.816 360.426C448.488 361.061 449.496 361.602 450.84 362.05C452.184 362.498 453.864 362.984 455.88 363.506C458.493 364.141 460.752 364.925 462.656 365.858C464.597 366.754 466.072 367.949 467.08 369.442C468.125 370.898 468.648 372.84 468.648 375.266C468.648 377.394 468.256 379.224 467.472 380.754C466.688 382.248 465.605 383.461 464.224 384.394C462.843 385.328 461.256 386.018 459.464 386.466C457.709 386.877 455.861 387.082 453.92 387.082C451.941 387.082 449.944 386.877 447.928 386.466C445.949 386.056 444.045 385.477 442.216 384.73C440.424 383.946 438.763 383.013 437.232 381.93L440.648 375.266C440.984 375.602 441.581 376.05 442.44 376.61C443.299 377.133 444.325 377.674 445.52 378.234C446.752 378.757 448.096 379.205 449.552 379.578C451.045 379.952 452.539 380.138 454.032 380.138C456.123 380.138 457.709 379.784 458.792 379.074C459.875 378.365 460.416 377.357 460.416 376.05C460.416 374.856 459.987 373.922 459.128 373.25C458.269 372.578 457.056 372 455.488 371.514C453.957 370.992 452.165 370.432 450.112 369.834C447.573 369.125 445.464 368.341 443.784 367.482C442.104 366.586 440.853 365.466 440.032 364.122C439.211 362.778 438.8 361.098 438.8 359.082C438.8 356.357 439.453 354.08 440.76 352.25C442.067 350.384 443.821 348.984 446.024 348.05C448.227 347.08 450.672 346.594 453.36 346.594C455.227 346.594 456.981 346.8 458.624 347.21C460.304 347.621 461.872 348.162 463.328 348.834C464.784 349.506 466.091 350.234 467.248 351.018L463.832 357.29ZM473.116 386.634C473.116 384.357 473.266 382.36 473.564 380.642C473.863 378.888 474.33 377.338 474.964 375.994C475.636 374.613 476.495 373.4 477.54 372.354C478.586 371.309 479.874 370.32 481.404 369.386C482.711 368.64 484.055 367.912 485.436 367.202C486.855 366.493 488.162 365.746 489.356 364.962C490.588 364.178 491.578 363.282 492.324 362.274C493.108 361.266 493.5 360.034 493.5 358.578C493.5 357.458 493.258 356.506 492.772 355.722C492.324 354.901 491.652 354.266 490.756 353.818C489.898 353.37 488.852 353.146 487.62 353.146C486.202 353.146 484.876 353.408 483.644 353.93C482.45 354.416 481.367 355.032 480.396 355.778C479.463 356.488 478.66 357.197 477.988 357.906L473.284 352.978C473.807 352.381 474.516 351.709 475.412 350.962C476.346 350.216 477.447 349.488 478.716 348.778C480.023 348.069 481.498 347.49 483.14 347.042C484.783 346.594 486.594 346.37 488.572 346.37C491.484 346.37 493.93 346.893 495.908 347.938C497.887 348.946 499.38 350.346 500.388 352.138C501.434 353.893 501.956 355.928 501.956 358.242C501.956 359.922 501.676 361.416 501.116 362.722C500.594 363.992 499.866 365.112 498.932 366.082C497.999 367.053 496.954 367.93 495.796 368.714C494.639 369.461 493.444 370.189 492.212 370.898C490.271 371.944 488.703 372.858 487.508 373.642C486.314 374.426 485.362 375.154 484.652 375.826C483.98 376.498 483.458 377.17 483.084 377.842C482.748 378.477 482.45 379.149 482.188 379.858H502.012V386.634H473.116ZM508.139 386.634V378.57H514.299V386.634H508.139ZM519.709 360.426C519.709 362.89 520.306 365.13 521.501 367.146C522.733 369.125 524.394 370.712 526.485 371.906C528.613 373.064 530.983 373.642 533.597 373.642C534.866 373.642 536.023 373.474 537.069 373.138C538.151 372.802 539.103 372.298 539.925 371.626C540.746 370.954 541.418 370.17 541.941 369.274C541.903 371.664 541.53 373.717 540.821 375.434C540.149 377.114 539.197 378.402 537.965 379.298C536.733 380.194 535.277 380.642 533.597 380.642C531.954 380.642 530.423 380.25 529.005 379.466C527.586 378.645 526.429 377.544 525.533 376.162L521.221 380.866C522.677 382.882 524.469 384.45 526.597 385.57C528.725 386.653 531.021 387.194 533.485 387.194C536.621 387.194 539.346 386.336 541.661 384.618C543.975 382.901 545.749 380.381 546.981 377.058C548.25 373.698 548.885 369.61 548.885 364.794C548.885 360.949 548.287 357.682 547.093 354.994C545.898 352.269 544.199 350.197 541.997 348.778C539.831 347.322 537.255 346.594 534.269 346.594C531.543 346.594 529.079 347.21 526.877 348.442C524.674 349.637 522.919 351.28 521.613 353.37C520.343 355.461 519.709 357.813 519.709 360.426ZM534.213 352.866C535.557 352.866 536.77 353.221 537.853 353.93C538.973 354.64 539.869 355.554 540.541 356.674C541.25 357.794 541.605 359.045 541.605 360.426C541.605 361.733 541.269 362.946 540.597 364.066C539.925 365.149 539.029 366.026 537.909 366.698C536.826 367.333 535.613 367.65 534.269 367.65C532.925 367.65 531.693 367.333 530.573 366.698C529.453 366.026 528.557 365.149 527.885 364.066C527.25 362.946 526.933 361.714 526.933 360.37C526.933 359.026 527.269 357.794 527.941 356.674C528.613 355.517 529.49 354.602 530.573 353.93C531.693 353.221 532.906 352.866 534.213 352.866ZM553.724 360.426C553.724 362.89 554.322 365.13 555.516 367.146C556.748 369.125 558.41 370.712 560.5 371.906C562.628 373.064 564.999 373.642 567.612 373.642C568.882 373.642 570.039 373.474 571.084 373.138C572.167 372.802 573.119 372.298 573.94 371.626C574.762 370.954 575.434 370.17 575.956 369.274C575.919 371.664 575.546 373.717 574.836 375.434C574.164 377.114 573.212 378.402 571.98 379.298C570.748 380.194 569.292 380.642 567.612 380.642C565.97 380.642 564.439 380.25 563.02 379.466C561.602 378.645 560.444 377.544 559.548 376.162L555.236 380.866C556.692 382.882 558.484 384.45 560.612 385.57C562.74 386.653 565.036 387.194 567.5 387.194C570.636 387.194 573.362 386.336 575.676 384.618C577.991 382.901 579.764 380.381 580.996 377.058C582.266 373.698 582.9 369.61 582.9 364.794C582.9 360.949 582.303 357.682 581.108 354.994C579.914 352.269 578.215 350.197 576.012 348.778C573.847 347.322 571.271 346.594 568.284 346.594C565.559 346.594 563.095 347.21 560.892 348.442C558.69 349.637 556.935 351.28 555.628 353.37C554.359 355.461 553.724 357.813 553.724 360.426ZM568.228 352.866C569.572 352.866 570.786 353.221 571.868 353.93C572.988 354.64 573.884 355.554 574.556 356.674C575.266 357.794 575.62 359.045 575.62 360.426C575.62 361.733 575.284 362.946 574.612 364.066C573.94 365.149 573.044 366.026 571.924 366.698C570.842 367.333 569.628 367.65 568.284 367.65C566.94 367.65 565.708 367.333 564.588 366.698C563.468 366.026 562.572 365.149 561.9 364.066C561.266 362.946 560.948 361.714 560.948 360.37C560.948 359.026 561.284 357.794 561.956 356.674C562.628 355.517 563.506 354.602 564.588 353.93C565.708 353.221 566.922 352.866 568.228 352.866ZM622.146 346.874L594.37 386.634H586.082L613.802 346.874H622.146ZM465.61 422.634V398.494H475.844C476.954 398.494 477.974 398.721 478.904 399.174C479.833 399.628 480.638 400.24 481.318 401.01C482.02 401.781 482.564 402.642 482.95 403.594C483.335 404.546 483.528 405.521 483.528 406.518C483.528 407.878 483.21 409.17 482.576 410.394C481.941 411.618 481.068 412.616 479.958 413.386C478.847 414.157 477.532 414.542 476.014 414.542H470.302V422.634H465.61ZM470.302 410.428H475.742C476.308 410.428 476.818 410.27 477.272 409.952C477.725 409.635 478.088 409.182 478.36 408.592C478.632 407.98 478.768 407.289 478.768 406.518C478.768 405.68 478.609 404.966 478.292 404.376C477.997 403.787 477.6 403.345 477.102 403.05C476.626 402.756 476.104 402.608 475.538 402.608H470.302V410.428ZM494.248 422.974C492.82 422.974 491.528 422.736 490.372 422.26C489.216 421.762 488.23 421.093 487.414 420.254C486.598 419.393 485.963 418.418 485.51 417.33C485.079 416.22 484.864 415.052 484.864 413.828C484.864 412.128 485.238 410.576 485.986 409.17C486.757 407.765 487.845 406.643 489.25 405.804C490.678 404.943 492.355 404.512 494.282 404.512C496.231 404.512 497.897 404.943 499.28 405.804C500.663 406.643 501.717 407.765 502.442 409.17C503.19 410.553 503.564 412.049 503.564 413.658C503.564 413.93 503.553 414.214 503.53 414.508C503.507 414.78 503.485 415.007 503.462 415.188H489.692C489.783 416.095 490.043 416.888 490.474 417.568C490.927 418.248 491.494 418.77 492.174 419.132C492.877 419.472 493.625 419.642 494.418 419.642C495.325 419.642 496.175 419.427 496.968 418.996C497.784 418.543 498.339 417.954 498.634 417.228L502.544 418.316C502.113 419.223 501.49 420.028 500.674 420.73C499.881 421.433 498.94 421.988 497.852 422.396C496.764 422.782 495.563 422.974 494.248 422.974ZM489.59 412.298H498.906C498.815 411.392 498.555 410.61 498.124 409.952C497.716 409.272 497.172 408.751 496.492 408.388C495.812 408.003 495.053 407.81 494.214 407.81C493.398 407.81 492.65 408.003 491.97 408.388C491.313 408.751 490.769 409.272 490.338 409.952C489.93 410.61 489.681 411.392 489.59 412.298ZM516.948 408.762C515.565 408.762 514.33 409.034 513.242 409.578C512.154 410.1 511.372 410.859 510.896 411.856V422.634H506.34V404.818H510.522V408.626C511.156 407.402 511.961 406.439 512.936 405.736C513.91 405.034 514.942 404.648 516.03 404.58C516.279 404.58 516.472 404.58 516.608 404.58C516.744 404.58 516.857 404.592 516.948 404.614V408.762ZM528.793 398.494L534.743 409.85L540.795 398.494H545.861L537.089 414.202V422.634H532.431V414.134L523.693 398.494H528.793ZM553.217 422.974C551.789 422.974 550.497 422.736 549.341 422.26C548.185 421.762 547.199 421.093 546.383 420.254C545.567 419.393 544.932 418.418 544.479 417.33C544.048 416.22 543.833 415.052 543.833 413.828C543.833 412.128 544.207 410.576 544.955 409.17C545.726 407.765 546.814 406.643 548.219 405.804C549.647 404.943 551.324 404.512 553.251 404.512C555.2 404.512 556.866 404.943 558.249 405.804C559.632 406.643 560.686 407.765 561.411 409.17C562.159 410.553 562.533 412.049 562.533 413.658C562.533 413.93 562.522 414.214 562.499 414.508C562.476 414.78 562.454 415.007 562.431 415.188H548.661C548.752 416.095 549.012 416.888 549.443 417.568C549.896 418.248 550.463 418.77 551.143 419.132C551.846 419.472 552.594 419.642 553.387 419.642C554.294 419.642 555.144 419.427 555.937 418.996C556.753 418.543 557.308 417.954 557.603 417.228L561.513 418.316C561.082 419.223 560.459 420.028 559.643 420.73C558.85 421.433 557.909 421.988 556.821 422.396C555.733 422.782 554.532 422.974 553.217 422.974ZM548.559 412.298H557.875C557.784 411.392 557.524 410.61 557.093 409.952C556.685 409.272 556.141 408.751 555.461 408.388C554.781 408.003 554.022 407.81 553.183 407.81C552.367 407.81 551.619 408.003 550.939 408.388C550.282 408.751 549.738 409.272 549.307 409.952C548.899 410.61 548.65 411.392 548.559 412.298ZM564.084 417.364C564.084 416.208 564.402 415.2 565.036 414.338C565.694 413.454 566.6 412.774 567.756 412.298C568.912 411.822 570.238 411.584 571.734 411.584C572.482 411.584 573.242 411.641 574.012 411.754C574.783 411.868 575.452 412.049 576.018 412.298V411.346C576.018 410.213 575.678 409.34 574.998 408.728C574.341 408.116 573.355 407.81 572.04 407.81C571.066 407.81 570.136 407.98 569.252 408.32C568.368 408.66 567.439 409.159 566.464 409.816L565.002 406.824C566.181 406.054 567.382 405.476 568.606 405.09C569.853 404.705 571.156 404.512 572.516 404.512C575.055 404.512 577.027 405.147 578.432 406.416C579.86 407.686 580.574 409.499 580.574 411.856V417.534C580.574 418.01 580.654 418.35 580.812 418.554C580.994 418.758 581.277 418.883 581.662 418.928V422.634C581.254 422.702 580.88 422.759 580.54 422.804C580.223 422.85 579.951 422.872 579.724 422.872C578.818 422.872 578.126 422.668 577.65 422.26C577.197 421.852 576.914 421.354 576.8 420.764L576.698 419.846C575.928 420.844 574.964 421.614 573.808 422.158C572.652 422.702 571.474 422.974 570.272 422.974C569.094 422.974 568.028 422.736 567.076 422.26C566.147 421.762 565.41 421.093 564.866 420.254C564.345 419.393 564.084 418.43 564.084 417.364ZM575.168 418.282C575.418 418.01 575.622 417.738 575.78 417.466C575.939 417.194 576.018 416.945 576.018 416.718V414.916C575.474 414.69 574.885 414.52 574.25 414.406C573.616 414.27 573.015 414.202 572.448 414.202C571.27 414.202 570.295 414.463 569.524 414.984C568.776 415.483 568.402 416.152 568.402 416.99C568.402 417.444 568.527 417.874 568.776 418.282C569.026 418.69 569.388 419.019 569.864 419.268C570.34 419.518 570.907 419.642 571.564 419.642C572.244 419.642 572.913 419.518 573.57 419.268C574.228 418.996 574.76 418.668 575.168 418.282ZM595.44 408.762C594.057 408.762 592.822 409.034 591.734 409.578C590.646 410.1 589.864 410.859 589.388 411.856V422.634H584.832V404.818H589.014V408.626C589.649 407.402 590.453 406.439 591.428 405.736C592.403 405.034 593.434 404.648 594.522 404.58C594.771 404.58 594.964 404.58 595.1 404.58C595.236 404.58 595.349 404.592 595.44 404.614V408.762Z" fill="#FE0000"/>
<rect x="448.896" y="291.073" width="162.543" height="31.7107" rx="15.8553" fill="white" stroke="#FE0000" stroke-width="3"/>
<path d="M519.624 297.743H524.403L530.991 316.913H526.455L524.97 312.62H519.003L517.545 316.913H513.009L519.624 297.743ZM524.241 309.569L522 302.198L519.705 309.569H524.241ZM545.719 301.631H539.887V316.913H535.459V301.631H529.6V297.743H545.719V301.631Z" fill="#003399"/>
<path d="M114.545 343.348C114.545 343.348 116.575 359.486 132.878 361.02C149.182 362.554 149.768 337.919 149.768 337.919C149.768 337.919 127.93 330.835 114.545 343.348Z" fill="#3D0B34"/>
<path d="M187.714 332.865C185.383 331.707 157.83 295.22 142.308 320.833C138.263 327.511 134.262 336.084 130.562 345.093C130.562 345.093 116.304 376.737 113.973 385.265C111.642 393.807 112.033 399.628 112.033 399.628L191.595 371.683L191.986 359.651C191.986 359.651 190.03 334.038 187.714 332.865Z" fill="#EAADA9"/>
<path d="M171.606 267.08C171.606 267.08 129.103 308.41 114.545 343.348C114.545 343.348 155.303 332.203 191.971 361.02C191.971 361.02 201.28 317.148 198.964 304.334C196.633 291.535 171.606 267.08 171.606 267.08Z" fill="#FE0000"/>
<path d="M194.302 353.41C194.196 353.41 194.091 353.395 193.986 353.365C193.384 353.199 193.038 352.568 193.219 351.966C193.309 351.68 201.701 322.442 200.934 305.763C200.904 305.146 201.386 304.62 202.002 304.59C202.649 304.59 203.145 305.041 203.175 305.658C203.957 322.728 195.716 351.379 195.37 352.598C195.249 353.079 194.798 353.41 194.302 353.41Z" fill="#3D0B34"/>
<path d="M198.182 339.047C197.941 339.047 197.686 338.971 197.475 338.806C196.994 338.415 196.904 337.708 197.295 337.227L206.604 325.586C206.995 325.104 207.702 325.014 208.184 325.405C208.665 325.796 208.755 326.503 208.364 326.985L199.054 338.625C198.844 338.896 198.513 339.047 198.182 339.047Z" fill="#3D0B34"/>
<path d="M112.018 399.628C112.018 399.628 125.99 412.442 133.751 414.758C141.511 417.074 256.402 399.628 317.329 375.94L312.667 348.386C312.667 348.386 240.475 357.696 227.66 358.478C214.846 359.26 168.283 358.869 147.317 369.728C126.381 380.602 112.018 392.634 112.018 399.628Z" fill="#EAADA9"/>
<path d="M120.771 388.182C120.47 388.182 120.185 388.062 119.959 387.836C119.523 387.385 119.538 386.678 119.989 386.242C120.245 386.001 145.482 362.178 183.443 359.892C184.075 359.862 184.601 360.328 184.631 360.945C184.661 361.561 184.195 362.103 183.578 362.133C146.46 364.359 121.794 387.611 121.553 387.851C121.328 388.077 121.042 388.182 120.771 388.182Z" fill="#FE656D"/>
<path d="M311.524 348.627C311.524 348.627 319.389 338.009 325.691 333.286C331.993 328.564 342.22 314.396 343.784 309.673C345.364 304.951 345.363 302.59 347.319 302.199C349.274 301.808 353.214 304.169 354.012 307.703C354.809 311.238 352.041 318.712 351.259 321.871C350.477 325.014 351.65 327.376 351.65 327.376C351.65 327.376 387.054 321.074 395.717 319.119C404.38 317.148 413.028 315.584 414.999 317.945C416.969 320.307 417.36 322.668 414.999 324.247C412.637 325.826 388.634 333.301 388.634 333.301C388.634 333.301 392.574 340.385 391.386 342.746C390.213 345.108 386.663 349.048 386.663 349.048C386.663 349.048 390.604 352.989 388.634 356.523C386.663 360.057 383.52 362.028 383.52 362.028C383.52 362.028 383.52 369.112 380.768 371.473C378.015 373.834 375.654 374.616 366.991 376.195C358.328 377.775 323.315 376.977 316.231 376.586C309.162 376.18 311.524 348.627 311.524 348.627Z" fill="#EAADA9"/>
</g>
<defs>
<filter id="filter0_d_3_1805" x="374" y="282.594" width="311" height="186.843" filterUnits="userSpaceOnUse" color-interpolation-filters="sRGB">
<feFlood flood-opacity="0" result="BackgroundImageFix"/>
<feColorMatrix in="SourceAlpha" type="matrix" values="0 0 0 0 0 0 0 0 0 0 0 0 0 0 0 0 0 0 127 0" result="hardAlpha"/>
<feOffset dy="1"/>
<feGaussianBlur stdDeviation="12"/>
<feColorMatrix type="matrix" values="0 0 0 0 0 0 0 0 0 0 0 0 0 0 0 0 0 0 0.12 0"/>
<feBlend mode="normal" in2="BackgroundImageFix" result="effect1_dropShadow_3_1805"/>
<feBlend mode="normal" in="SourceGraphic" in2="effect1_dropShadow_3_1805" result="shape"/>
</filter>
<clipPath id="clip0_3_1805">
<rect width="752" height="752" fill="white"/>
</clipPath>
</defs>
</svg>
